<svg xmlns="http://www.w3.org/2000/svg" xmlns:xlink="http://www.w3.org/1999/xlink" preserveAspectRatio="xMidYMid" width="33.093" height="39.03" viewBox="0 0 33.093 39.03">
  <defs>
    <style>
      .cls-1 {
        fill: #fff;
        fill-rule: evenodd;
      }
    </style>
  </defs>
  <path d="M33.051,0.898 C33.146,0.972 33.053,1.250 32.835,1.519 C32.808,1.556 32.778,1.591 32.750,1.624 C32.698,1.679 32.770,2.448 32.813,3.355 C32.866,4.489 32.826,5.919 32.556,7.570 C32.532,7.728 32.505,7.882 32.479,8.031 C32.456,8.150 32.439,8.259 32.414,8.377 C32.306,8.934 32.188,9.427 32.078,9.841 C31.863,10.643 31.389,11.973 31.041,12.814 C30.015,15.281 28.447,17.977 26.068,20.772 C25.475,21.469 25.177,22.718 25.339,23.613 C25.888,26.660 26.280,33.303 20.349,36.818 C19.557,37.288 18.977,36.842 18.992,35.933 C19.051,31.927 17.564,21.976 1.245,22.277 C0.320,22.293 -0.237,21.627 0.124,20.790 C1.269,18.134 4.444,13.018 11.859,13.266 C12.781,13.297 13.866,12.749 14.356,11.979 C15.639,9.960 18.428,6.217 22.836,3.544 C25.557,1.846 28.056,1.126 29.615,0.820 C30.522,0.644 31.295,0.561 31.327,0.514 C31.345,0.487 31.365,0.459 31.386,0.431 C31.600,0.162 31.852,0.001 31.950,0.072 L32.020,0.124 C32.059,0.152 32.331,0.100 32.625,0.009 C32.920,-0.083 33.108,0.060 33.046,0.328 C32.986,0.595 32.961,0.831 32.993,0.855 C33.025,0.879 33.051,0.898 33.051,0.898 ZM23.379,11.431 C22.001,10.654 20.301,10.939 19.296,12.030 C19.155,12.184 19.028,12.351 18.918,12.539 C18.023,14.048 18.573,15.993 20.148,16.884 C21.522,17.663 23.222,17.376 24.230,16.284 C24.367,16.132 24.498,15.964 24.609,15.776 C25.504,14.265 24.950,12.318 23.379,11.431 ZM7.507,25.333 C8.287,24.846 8.769,25.263 8.417,26.103 C7.621,28.005 5.928,31.195 3.001,32.923 C2.209,33.390 1.689,32.918 2.040,32.078 C2.799,30.259 4.440,27.251 7.507,25.333 ZM10.938,27.964 C11.731,27.498 12.217,27.909 11.895,28.761 C10.923,31.335 8.519,36.427 4.050,38.850 C3.242,39.287 2.720,38.819 3.036,37.967 C3.953,35.506 6.245,30.733 10.938,27.964 ZM14.383,30.624 C15.163,30.137 15.644,30.554 15.293,31.394 C14.497,33.297 12.803,36.488 9.876,38.218 C9.084,38.686 8.565,38.214 8.916,37.372 C9.674,35.554 11.314,32.544 14.383,30.624 Z" class="cls-1"/>
</svg>
