<svg xmlns="http://www.w3.org/2000/svg" xmlns:xlink="http://www.w3.org/1999/xlink" preserveAspectRatio="xMidYMid" width="23" height="21" viewBox="0 0 23 21">
  <defs>
    <style>
      .cls-1 {
        fill: #fff;
        fill-rule: evenodd;
      }
    </style>
  </defs>
  <path d="M21.610,17.596 L1.394,17.596 C0.622,17.596 -0.008,16.955 -0.008,16.175 L-0.008,1.425 C-0.008,0.645 0.622,0.003 1.394,0.003 L21.610,0.003 C22.381,0.003 23.011,0.645 23.011,1.425 L23.011,16.175 C23.011,16.955 22.381,17.596 21.610,17.596 ZM21.257,1.997 L1.745,1.997 L1.745,15.129 L21.257,15.129 L21.257,1.997 ZM4.725,10.594 C4.921,10.594 5.093,10.669 5.243,10.774 L9.546,7.377 C9.509,7.274 9.482,7.166 9.482,7.050 C9.482,6.525 9.901,6.099 10.419,6.099 C10.937,6.099 11.357,6.525 11.357,7.050 C11.357,7.166 11.329,7.273 11.292,7.376 C12.012,7.997 13.004,8.853 13.626,9.389 C13.786,9.260 13.980,9.171 14.200,9.171 C14.387,9.171 14.551,9.240 14.697,9.335 C15.350,8.737 16.390,7.784 17.072,7.159 C17.029,7.050 17.002,6.931 17.002,6.806 C17.002,6.280 17.421,5.854 17.939,5.854 C18.457,5.854 18.877,6.280 18.877,6.806 C18.877,7.331 18.457,7.757 17.939,7.757 C17.782,7.757 17.641,7.708 17.511,7.639 L15.087,9.859 C15.111,9.944 15.139,10.029 15.139,10.122 C15.139,10.649 14.718,11.075 14.200,11.075 C13.682,11.075 13.262,10.649 13.262,10.122 C13.262,10.065 13.284,10.015 13.294,9.961 C12.536,9.307 11.491,8.405 10.870,7.869 C10.734,7.946 10.586,8.002 10.419,8.002 C10.218,8.002 10.042,7.924 9.889,7.814 C8.924,8.569 6.807,10.297 5.609,11.277 C5.635,11.364 5.662,11.450 5.662,11.545 C5.662,12.070 5.242,12.496 4.725,12.496 C4.207,12.496 3.787,12.070 3.787,11.545 C3.787,11.020 4.207,10.594 4.725,10.594 ZM14.133,18.272 L16.779,20.999 L6.262,20.999 L8.907,18.272 L14.133,18.272 Z" class="cls-1"/>
</svg>
