<svg xmlns="http://www.w3.org/2000/svg" xmlns:xlink="http://www.w3.org/1999/xlink" preserveAspectRatio="xMidYMid" width="22.969" height="21" viewBox="0 0 22.969 21">
  <defs>
    <style>
      .cls-1 {
        fill: #fff;
        fill-rule: evenodd;
      }
    </style>
  </defs>
  <path d="M22.939,8.941 L21.213,18.158 C21.170,18.386 21.140,18.760 21.093,18.987 C20.855,20.130 19.670,21.000 18.509,21.000 L10.334,21.000 C9.860,21.000 9.420,20.851 9.052,20.600 C8.865,20.472 8.577,20.245 8.386,20.124 C7.684,19.679 6.881,19.165 5.648,19.071 C5.424,19.054 5.084,18.964 4.888,18.850 L3.716,18.169 C3.520,18.055 3.362,17.775 3.362,17.543 L3.362,9.272 C3.362,9.041 3.533,8.789 3.744,8.710 L6.466,7.699 C6.677,7.620 7.010,7.471 7.207,7.360 C8.175,6.813 10.857,5.177 12.254,3.143 C13.327,1.579 14.386,-0.000 15.116,-0.000 C15.559,0.000 15.881,0.579 16.014,2.090 C16.174,3.906 15.874,4.972 15.346,5.765 C15.220,5.957 15.282,6.099 15.506,6.099 L20.666,6.099 C21.826,6.099 22.790,6.968 22.981,8.111 C23.020,8.339 22.982,8.713 22.939,8.941 ZM2.166,18.967 L0.677,18.967 C0.303,18.967 -0.000,18.654 -0.000,18.267 L-0.000,8.611 C-0.000,8.224 0.303,7.911 0.677,7.911 L2.166,7.911 C2.540,7.911 2.843,8.224 2.843,8.611 L2.843,18.267 C2.843,18.654 2.540,18.967 2.166,18.967 Z" class="cls-1"/>
</svg>
