<svg xmlns="http://www.w3.org/2000/svg" xmlns:xlink="http://www.w3.org/1999/xlink" preserveAspectRatio="xMidYMid" width="19" height="25" viewBox="0 0 19 25">
  <defs>
    <style>
      .cls-1 {
        fill: #fff;
        fill-rule: evenodd;
      }
    </style>
  </defs>
  <path d="M15.833,9.375 C15.833,12.500 12.667,15.576 12.667,18.750 L6.333,18.750 C6.333,15.674 3.167,12.500 3.167,9.375 C3.167,5.923 6.002,3.125 9.500,3.125 C12.997,3.125 15.833,5.923 15.833,9.375 ZM11.875,21.875 L7.125,21.875 C6.687,21.875 6.333,22.224 6.333,22.656 C6.333,23.088 6.687,23.437 7.125,23.437 L7.270,23.437 C7.597,24.347 8.467,25.000 9.500,25.000 C10.533,25.000 11.403,24.347 11.730,23.437 L11.875,23.437 C12.313,23.437 12.667,23.088 12.667,22.656 C12.667,22.224 12.313,21.875 11.875,21.875 ZM11.875,19.531 L7.125,19.531 C6.687,19.531 6.333,19.881 6.333,20.312 C6.333,20.744 6.687,21.094 7.125,21.094 L11.875,21.094 C12.313,21.094 12.667,20.744 12.667,20.312 C12.667,19.881 12.313,19.531 11.875,19.531 ZM0.877,5.365 L2.298,6.173 C2.517,5.694 2.785,5.246 3.094,4.823 L1.668,4.010 L0.877,5.365 ZM10.292,1.641 L10.292,-0.000 L8.708,-0.000 L8.708,1.641 C8.973,1.614 9.228,1.562 9.500,1.562 C9.772,1.562 10.027,1.614 10.292,1.641 ZM6.256,2.267 L5.436,0.865 L4.063,1.646 L4.888,3.053 C5.316,2.748 5.770,2.484 6.256,2.267 ZM18.123,5.365 L17.332,4.010 L15.906,4.823 C16.215,5.246 16.484,5.694 16.704,6.173 L18.123,5.365 ZM14.935,1.646 L13.565,0.865 L12.745,2.267 C13.229,2.484 13.686,2.748 14.112,3.052 L14.935,1.646 ZM1.583,9.375 C1.583,9.106 1.636,8.854 1.664,8.594 L-0.000,8.594 L-0.000,10.156 L1.667,10.156 C1.636,9.897 1.583,9.640 1.583,9.375 ZM17.336,8.594 C17.364,8.854 17.417,9.106 17.417,9.375 C17.417,9.640 17.364,9.897 17.333,10.156 L19.000,10.156 L19.000,8.594 L17.336,8.594 ZM16.036,14.000 L17.332,14.738 L18.123,13.385 L16.685,12.567 C16.486,13.052 16.269,13.528 16.036,14.000 ZM0.877,13.385 L1.668,14.738 L2.953,14.007 C2.721,13.534 2.505,13.055 2.309,12.570 L0.877,13.385 Z" class="cls-1"/>
</svg>
