<svg xmlns="http://www.w3.org/2000/svg" xmlns:xlink="http://www.w3.org/1999/xlink" preserveAspectRatio="xMidYMid" width="22" height="25" viewBox="0 0 22 25">
  <defs>
    <style>
      .cls-1 {
        fill: #fff;
        fill-rule: evenodd;
      }
    </style>
  </defs>
  <path d="M21.884,15.240 C21.185,16.009 19.995,16.038 19.995,16.038 C19.995,16.038 20.768,17.501 20.421,17.906 C20.073,18.312 19.109,18.138 19.109,18.138 C19.109,18.138 20.005,18.784 20.005,19.284 C20.005,19.784 18.490,20.451 18.490,20.451 C18.490,20.451 18.768,23.223 16.491,23.031 C14.216,22.838 13.834,22.198 13.834,22.198 L13.160,24.999 L4.352,24.999 L4.661,18.908 C4.661,18.908 -0.748,13.050 0.103,7.810 C0.530,5.718 0.258,1.335 7.520,0.180 C14.782,-0.978 21.325,2.699 19.680,10.734 C19.680,12.199 22.585,14.473 21.884,15.240 ZM13.275,7.859 C13.275,7.859 12.598,7.468 12.260,7.273 C12.250,7.079 12.229,6.887 12.189,6.700 C12.457,6.471 12.994,6.013 12.994,6.013 L12.994,5.090 L11.672,3.552 L10.745,3.552 C10.745,3.552 10.306,3.927 10.088,4.115 C9.848,3.999 9.598,3.905 9.334,3.834 C9.312,3.574 9.271,3.053 9.271,3.053 L8.616,2.399 L6.593,2.562 L5.938,3.215 C5.938,3.215 5.993,3.901 6.022,4.244 C5.824,4.356 5.636,4.483 5.462,4.624 C5.178,4.494 4.609,4.234 4.609,4.234 L3.713,4.469 L2.866,6.310 L2.835,6.436 L3.100,7.205 C3.100,7.205 3.761,7.506 4.091,7.657 C4.106,7.874 4.139,8.086 4.194,8.292 C3.942,8.506 3.437,8.931 3.437,8.931 L3.437,9.855 L4.749,11.400 C4.749,11.400 5.512,11.490 5.553,11.468 C5.594,11.445 5.676,11.400 5.676,11.400 C5.676,11.400 6.155,10.995 6.395,10.793 C6.597,10.883 6.808,10.960 7.028,11.018 C7.052,11.289 7.101,11.832 7.101,11.832 L7.757,12.485 L9.777,12.301 L10.432,11.647 C10.432,11.647 10.368,10.948 10.337,10.597 C10.502,10.503 10.661,10.401 10.809,10.286 C11.073,10.436 11.599,10.740 11.599,10.740 L12.495,10.505 L13.510,8.752 L13.275,7.859 ZM15.845,15.293 C15.845,15.293 15.410,15.043 15.193,14.918 C15.188,14.793 15.174,14.670 15.149,14.550 C15.320,14.403 15.664,14.109 15.664,14.109 L15.664,13.516 L14.816,12.529 L14.221,12.529 C14.221,12.529 13.940,12.770 13.800,12.890 C13.646,12.817 13.486,12.756 13.316,12.710 C13.302,12.543 13.276,12.209 13.276,12.209 L12.856,11.790 L11.558,11.895 L11.139,12.313 C11.139,12.313 11.174,12.753 11.192,12.974 C11.065,13.045 10.944,13.126 10.833,13.217 C10.650,13.133 10.286,12.968 10.286,12.968 L9.710,13.118 L9.167,14.298 L9.148,14.380 L9.318,14.873 C9.318,14.873 9.742,15.066 9.954,15.162 C9.964,15.302 9.985,15.437 10.020,15.570 C9.858,15.707 9.535,15.980 9.535,15.980 L9.535,16.572 L10.376,17.565 C10.376,17.565 10.866,17.623 10.892,17.608 C10.917,17.594 10.970,17.565 10.970,17.565 C10.970,17.565 11.277,17.305 11.432,17.175 C11.561,17.232 11.695,17.283 11.836,17.320 C11.852,17.495 11.884,17.842 11.884,17.842 L12.304,18.262 L13.599,18.143 L14.018,17.725 C14.018,17.725 13.978,17.276 13.957,17.051 C14.064,16.990 14.166,16.926 14.261,16.851 C14.431,16.948 14.768,17.142 14.768,17.142 L15.342,16.992 L15.995,15.867 L15.845,15.293 ZM12.501,16.333 C11.778,16.333 11.192,15.748 11.192,15.027 C11.192,14.305 11.778,13.721 12.501,13.721 C13.224,13.721 13.810,14.305 13.810,15.027 C13.810,15.748 13.224,16.333 12.501,16.333 ZM8.063,9.479 C6.936,9.479 6.021,8.567 6.021,7.443 C6.021,6.317 6.936,5.406 8.063,5.406 C9.191,5.406 10.105,6.317 10.105,7.443 C10.105,8.567 9.191,9.479 8.063,9.479 Z" class="cls-1"/>
</svg>
