<svg xmlns="http://www.w3.org/2000/svg" xmlns:xlink="http://www.w3.org/1999/xlink" preserveAspectRatio="xMidYMid" width="16" height="19" viewBox="0 0 16 19">
  <defs>
    <style>
      .cls-1 {
        fill: #fc635e;
        fill-rule: evenodd;
      }
    </style>
  </defs>
  <path d="M16.013,0.446 C16.059,0.482 16.014,0.617 15.908,0.748 C15.895,0.766 15.881,0.783 15.867,0.799 C15.842,0.826 15.877,1.200 15.898,1.642 C15.923,2.193 15.904,2.890 15.773,3.693 C15.761,3.770 15.748,3.845 15.736,3.918 C15.725,3.976 15.716,4.029 15.704,4.086 C15.652,4.357 15.595,4.597 15.541,4.799 C15.437,5.189 15.207,5.836 15.038,6.246 C14.542,7.447 13.781,8.759 12.628,10.119 C12.341,10.459 12.197,11.067 12.275,11.502 C12.541,12.985 12.731,16.219 9.857,17.930 C9.473,18.158 9.192,17.941 9.199,17.499 C9.228,15.549 8.507,10.705 0.598,10.852 C0.150,10.859 -0.120,10.535 0.055,10.128 C0.610,8.835 2.148,6.345 5.742,6.466 C6.189,6.481 6.715,6.214 6.952,5.839 C7.574,4.856 8.926,3.035 11.062,1.734 C12.381,0.907 13.592,0.557 14.348,0.408 C14.787,0.322 15.162,0.282 15.177,0.259 C15.186,0.246 15.196,0.232 15.206,0.219 C15.310,0.088 15.432,0.009 15.479,0.044 L15.513,0.069 C15.532,0.082 15.664,0.057 15.806,0.013 C15.949,-0.032 16.041,0.038 16.010,0.168 C15.981,0.299 15.969,0.413 15.985,0.425 C16.000,0.436 16.013,0.446 16.013,0.446 ZM11.325,5.572 C10.658,5.194 9.834,5.333 9.347,5.864 C9.278,5.939 9.216,6.020 9.163,6.112 C8.729,6.846 8.996,7.793 9.760,8.227 C10.425,8.606 11.249,8.466 11.738,7.935 C11.804,7.861 11.867,7.779 11.921,7.687 C12.355,6.952 12.087,6.004 11.325,5.572 ZM3.633,12.339 C4.011,12.102 4.244,12.305 4.074,12.714 C3.688,13.640 2.868,15.192 1.449,16.034 C1.065,16.261 0.813,16.031 0.984,15.622 C1.351,14.737 2.146,13.273 3.633,12.339 ZM5.296,13.620 C5.680,13.393 5.916,13.593 5.759,14.007 C5.288,15.261 4.124,17.739 1.958,18.918 C1.566,19.131 1.313,18.903 1.466,18.489 C1.910,17.291 3.021,14.967 5.296,13.620 ZM6.966,14.915 C7.344,14.677 7.577,14.880 7.407,15.289 C7.021,16.216 6.200,17.769 4.781,18.611 C4.397,18.839 4.146,18.609 4.316,18.199 C4.683,17.314 5.478,15.849 6.966,14.915 Z" class="cls-1"/>
</svg>
