<svg xmlns="http://www.w3.org/2000/svg" width="37" height="37" viewBox="0 0 37 37"><g><g><path fill="#565656" d="M36.992 18.506c0 10.22-8.281 18.507-18.496 18.507C8.282 37.013 0 28.726 0 18.506S8.282 0 18.496 0c10.215 0 18.496 8.284 18.496 18.506zm-23.12-7.229H9.248V27.47h4.624zm0-3.163c0-1.195-.97-2.167-2.169-2.17a2.17 2.17 0 0 0 0 4.34 2.169 2.169 0 0 0 2.169-2.17zM30.056 17.6c0-5.422-3.125-6.32-4.624-6.32a7.739 7.739 0 0 0-4.624 1.545v-1.547h-4.624V27.47h4.624V17.458s.46-1.994 2.85-1.994c1.44 0 1.774.821 1.774 1.994V27.47h4.624z"/></g></g></svg>