<svg xmlns="http://www.w3.org/2000/svg" width="37" height="37" viewBox="0 0 37 37"><g><g><path fill="#565656" d="M37 18.5C37 28.717 28.718 37 18.5 37 8.284 37 .002 28.717.002 18.5.001 8.282 8.283 0 18.501 0 28.718 0 37 8.282 37 18.5zm-9.158-5.23a7.299 7.299 0 0 1-2.093.573 3.656 3.656 0 0 0 1.602-2.016 7.306 7.306 0 0 1-2.314.885 3.644 3.644 0 0 0-6.209 3.323 10.345 10.345 0 0 1-7.509-3.807 3.644 3.644 0 0 0 1.128 4.865 3.638 3.638 0 0 1-1.65-.456l-.001.045a3.647 3.647 0 0 0 2.923 3.573 3.627 3.627 0 0 1-1.645.063 3.646 3.646 0 0 0 3.404 2.53 7.305 7.305 0 0 1-5.395 1.508 10.307 10.307 0 0 0 5.585 1.638c6.701 0 10.366-5.552 10.366-10.368 0-.157-.002-.315-.01-.471a7.397 7.397 0 0 0 1.818-1.885z"/></g></g></svg>